<svg width="50" height="44" viewBox="0 0 50 44" fill="none" xmlns="http://www.w3.org/2000/svg">
<path d="M10.5111 42.1772C9.83727 43.3443 8.61045 43.9974 7.35071 43.9976C6.73314 43.9976 6.10786 43.8407 5.53575 43.5104C3.79655 42.5063 3.19851 40.2744 4.20258 38.5352L4.91892 37.2946H13.3301L10.5111 42.1772Z" fill="white"/>
<path d="M3.64215 34.3808C1.63387 34.3808 0 32.747 0 30.7387C0 28.7304 1.63387 27.0965 3.64215 27.0965H10.8067L20.6338 10.0755L17.9705 5.46247C16.9664 3.72328 17.5643 1.49137 19.3035 0.487156C21.0427 -0.516911 23.2748 0.0812756 24.2788 1.82033L24.8394 2.79132L25.4 1.82047C26.4045 0.0811298 28.6364 -0.516765 30.3752 0.487302C31.2177 0.973747 31.8204 1.75914 32.0722 2.69881C32.3241 3.63849 32.1947 4.62012 31.7082 5.46262L19.2179 27.0965H27.0964L31.3021 34.3808H3.64215Z" fill="white"/>
<path d="M46.0367 34.3809H43.0777L45.4761 38.5352C46.4803 40.2742 45.8823 42.5061 44.1432 43.5103C43.5819 43.8343 42.9589 44 42.3278 44C42.0114 44 41.6932 43.9585 41.3793 43.8742C40.4394 43.6224 39.654 43.0197 39.1676 42.177L26.5215 20.2734L30.727 12.9891L38.8721 27.0966H46.0367C48.045 27.0966 49.6788 28.7305 49.6788 30.7388C49.6788 32.7471 48.045 34.3809 46.0367 34.3809Z" fill="#F2F2F2"/>
<path d="M24.8394 27.0966V34.3809H31.302L27.0965 27.0966H24.8394Z" fill="#F2F2F2"/>
<path d="M32.0721 2.69876C31.8202 1.75909 31.2177 0.973551 30.3752 0.487251C28.6363 -0.516815 26.4044 0.0809338 25.4 1.82042L24.8394 2.79127V17.3599L31.7082 5.46257C32.1947 4.62007 32.324 3.63858 32.0721 2.69876Z" fill="#F2F2F2"/>
</svg>
