<svg width="39" height="47" viewBox="0 0 39 47" fill="none" xmlns="http://www.w3.org/2000/svg">
<path fill-rule="evenodd" clip-rule="evenodd" d="M9.54686 33.8183C9.06452 33.682 8.53621 33.6261 7.98496 33.6537C6.33121 33.7371 4.39419 34.6275 2.82465 36.3012C1.27809 37.9419 0.44359 39.9456 0.367028 41.6675C0.305778 43.0563 0.719245 44.2859 1.54612 45.1679C2.41128 46.0874 3.62096 46.5307 4.98377 46.4618C6.63752 46.3784 8.57454 45.4879 10.1441 43.8143C11.6906 42.1735 12.5251 40.1699 12.6017 38.448C12.6094 38.3278 12.6094 38.0614 12.6094 38.0468V15.5972L35.5781 11.544V29.2245C35.0958 29.0883 34.5675 29.0324 34.0162 29.0599C32.3625 29.1434 30.4254 30.0338 28.8559 31.7075C27.3093 33.3482 26.4748 35.3518 26.3983 37.0737C26.337 38.4626 26.7505 39.6922 27.5774 40.5742C28.4425 41.4937 29.6522 41.937 31.015 41.8681C32.6688 41.7846 34.6058 40.8942 36.1753 39.2205C37.7219 37.5798 38.5564 35.5762 38.6329 33.8543C38.6406 33.7341 38.6406 33.4676 38.6406 33.4531V2.06245C38.6406 1.60997 38.4416 1.18046 38.0894 0.889519C37.7449 0.598582 37.293 0.476079 36.8413 0.554173L10.8101 5.14792C10.0827 5.27731 9.54686 5.91355 9.54686 6.6562V33.8183Z" fill="white"/>
</svg>
