<svg width="53" height="51" viewBox="0 0 53 51" fill="none" xmlns="http://www.w3.org/2000/svg">
<path d="M32.3942 19.9771C31.3575 20.8263 30.0679 21.8828 27.7184 21.8828H26.3159C24.6183 21.8828 23.0742 21.3136 21.9696 20.2795C20.8909 19.2692 20.2952 17.8878 20.2952 16.3875V14.6132C20.2952 13.1129 20.8895 11.7301 21.9696 10.7211C23.0749 9.68706 24.6183 9.11785 26.3159 9.11785H27.7184C30.0672 9.11785 31.3575 10.1744 32.3942 11.0236C33.4694 11.9045 34.3981 12.6652 36.8722 12.6652C37.2563 12.6652 37.6334 12.6368 38 12.582C37.9972 12.5747 37.9944 12.5688 37.9916 12.5622C37.8444 12.2254 37.6713 11.8939 37.4715 11.5743L35.8174 8.92636C34.2999 6.49632 31.4942 5 28.4593 5H25.1503C22.1154 5 19.3097 6.49698 17.7922 8.92636L16.1381 11.5743C14.6206 14.0043 14.6206 16.997 16.1381 19.4264L17.7922 22.0743C19.3097 24.5043 22.1154 26 25.1503 26H28.4593C31.4942 26 34.2999 24.503 35.8174 22.0743L37.4715 19.4264C37.6713 19.1061 37.8444 18.7759 37.9916 18.4392C37.9944 18.4319 37.9972 18.4259 38 18.4193C37.6334 18.3645 37.2577 18.3361 36.8722 18.3361C34.3988 18.3355 33.4694 19.0962 32.3942 19.9771Z" fill="white"/>
<path d="M27.4877 11H26.1337C23.6396 11 22 12.6071 22 14.6641V16.3359C22 18.3929 23.6389 20 26.1337 20H27.4877C31.1221 20 30.8365 16.6576 36.3242 16.6576C36.85 16.6576 37.3697 16.7011 37.8752 16.7858C38.0416 15.9358 38.0416 15.066 37.8752 14.2155C37.369 14.3001 36.85 14.3437 36.3242 14.3437C30.8365 14.343 31.1221 11 27.4877 11Z" fill="white"/>
<path d="M41.2983 18.2372C40.3586 17.557 39.2804 17.113 38.1371 16.9039C38.1351 16.9127 38.1344 16.9216 38.1324 16.9304C38.0347 17.4647 37.882 17.9908 37.673 18.5013C38.6379 18.6547 39.5267 19.0104 40.2866 19.5569C40.2839 19.5651 40.2819 19.5732 40.2792 19.5821C39.8409 20.9785 39.18 22.2948 38.3162 23.4924C37.4627 24.675 36.4307 25.7163 35.248 26.586C32.7931 28.3931 29.8694 29.3476 26.7917 29.3476C24.8864 29.3476 23.0389 28.9817 21.2998 28.2601C19.6205 27.5629 18.1115 26.5643 16.8142 25.2914C15.5175 24.0185 14.5004 22.5379 13.79 20.8889C13.0552 19.1822 12.682 17.3689 12.682 15.4986C12.682 13.6284 13.0552 11.8151 13.79 10.1084C14.5004 8.4601 15.5175 6.9788 16.8142 5.70592C18.1108 4.43303 19.6198 3.43509 21.2998 2.73721C23.0382 2.01557 24.8858 1.64966 26.7917 1.64966C29.8694 1.64966 32.7931 2.60415 35.248 4.41131C36.4307 5.28162 37.462 6.32233 38.3162 7.50493C39.18 8.70314 39.8409 10.0195 40.2792 11.4152C40.2819 11.4241 40.2846 11.4322 40.2866 11.4403C39.5274 11.9862 38.6379 12.3432 37.673 12.496C37.882 13.0072 38.0353 13.5347 38.1324 14.0689C38.1344 14.0778 38.1351 14.0859 38.1371 14.0947C39.2804 13.8856 40.3579 13.4417 41.2983 12.7614C42.1994 12.107 42.025 11.3677 41.8879 10.9292C39.9019 4.60139 33.8951 0 26.7924 0C18.0701 0 11 6.93943 11 15.5C11 24.0606 18.0708 31 26.7924 31C33.8951 31 39.9019 26.3979 41.8879 20.0668C42.0257 19.6309 42.2007 18.8923 41.2983 18.2372Z" fill="white"/>
<path d="M23.5945 40.4591C24.7162 40.4591 25.7776 41.1442 26.0068 42.6226H21.0134C21.2064 41.3245 22.1834 40.4591 23.5945 40.4591ZM25.8379 44.8101C25.452 45.399 24.7162 45.8558 23.7031 45.8558C22.316 45.8558 21.2426 45.0986 20.9893 43.7524H27.2612C27.2974 43.5601 27.3094 43.3678 27.3094 43.1755C27.3094 41.0841 25.85 39.2332 23.5825 39.2332C21.2426 39.2332 19.6625 40.9519 19.6625 43.1514C19.6625 45.387 21.2667 47.0697 23.679 47.0697C25.1746 47.0697 26.3083 46.3966 26.9717 45.387L25.8379 44.8101ZM17.7448 36H19.0474V46.8894H17.7448V36ZM34.5583 42.3101V46.8894H33.2556V42.3822C33.2556 41.1562 32.5561 40.4712 31.3982 40.4712C30.2041 40.4712 29.2272 41.1683 29.2272 42.9351V46.8894H27.9245V39.4375H29.2272V40.5072C29.782 39.6298 30.6022 39.2452 31.6515 39.2452C33.4124 39.2332 34.5583 40.399 34.5583 42.3101ZM41.7347 43.1514C41.7347 41.625 40.5769 40.4832 39.0692 40.4832C37.5736 40.4832 36.4157 41.637 36.4157 43.1514C36.4157 44.6779 37.5736 45.8197 39.0692 45.8197C40.5889 45.8317 41.7347 44.6779 41.7347 43.1514ZM43.0374 36V46.8894H41.7347V45.6034C41.1317 46.5168 40.1788 47.0817 38.9003 47.0817C36.8258 47.0817 35.1131 45.363 35.1131 43.1635C35.1131 40.9639 36.8137 39.2452 38.9003 39.2452C40.1668 39.2452 41.1317 39.8101 41.7347 40.7236V36.012H43.0374V36ZM44.0867 36H45.3893V46.8894H44.0867V36ZM15.429 43.1514C15.429 41.625 14.2711 40.4832 12.7635 40.4832C11.2679 40.4832 10.11 41.637 10.11 43.1514C10.11 44.6779 11.2679 45.8197 12.7635 45.8197C14.2711 45.8317 15.429 44.6779 15.429 43.1514ZM16.7316 39.4255V46.8774H15.429V45.5913C14.826 46.5048 13.8731 47.0697 12.6067 47.0697C10.5321 47.0697 8.81944 45.351 8.81944 43.1514C8.81944 40.9519 10.5201 39.2332 12.6067 39.2332C13.8731 39.2332 14.838 39.7981 15.429 40.7115V39.4255H16.7316ZM6.87756 45.4471C4.7789 46.2163 2.45106 45.1466 1.66708 43.0553C0.895155 40.9639 1.96861 38.6442 4.06728 37.863C5.41815 37.3702 6.93787 37.6226 8.04751 38.5361C8.27667 38.7284 8.48172 38.9327 8.66264 39.1731L9.78434 38.3558C7.95102 35.976 4.52561 35.5192 2.13747 37.3462C-0.250668 39.1731 -0.708998 42.5865 1.12432 44.9663C2.95764 47.3462 6.38305 47.8029 8.77119 45.976C8.78325 45.9639 8.78325 45.9639 8.79531 45.9519L8.04751 44.774C7.70979 45.0625 7.31177 45.2909 6.87756 45.4471ZM51.6733 39.4255V43.6563C51.6733 45.0264 50.8772 45.8918 49.659 45.8918C48.4408 45.8918 47.5604 45.0264 47.5604 43.6563V39.4255H46.2457V43.5361C46.2457 45.6875 47.5965 47.0817 49.6711 47.0817C51.4682 47.0817 51.7456 45.9519 51.7456 45.9279V47.4543C51.7456 48.9688 51.0823 49.8101 49.7073 49.8101C48.6941 49.8101 47.8257 49.0649 47.693 48.0673L46.511 48.476C46.8608 49.9543 48.1875 51 49.7073 51C51.8421 51 53 49.6058 53 47.4543V39.4375H51.6733V39.4255Z" fill="white"/>
</svg>
