<svg width="39" height="55" viewBox="0 0 39 55" fill="none" xmlns="http://www.w3.org/2000/svg">
<path d="M16.805 50C16.5234 50 16.2395 49.9977 15.9509 49.9909C7.61329 49.7904 2.14719 44.7226 0.298235 42.7037C-0.110337 42.2594 -0.0964857 41.5894 0.323628 41.1542L4.16466 36.8794C4.57554 36.4533 5.23572 36.4032 5.70431 36.7655C7.40784 38.0871 11.3504 41.4459 16.5442 41.7262C22.5735 42.0497 25.3827 40.3567 25.7451 37.7704C26.089 35.3208 24.8795 33.2449 18.1807 31.5291C6.21214 28.4643 4.06541 21.5713 4.80176 15.8131C5.57505 9.75412 11.9345 4.9279 19.3095 5.00082C29.8493 5.10791 36.3449 9.75412 38.6093 11.6955C39.1172 12.1308 39.1287 12.8919 38.6509 13.359L35.0014 17.4287C34.6206 17.8024 34.0273 17.873 33.5772 17.5836C31.7329 16.3987 28.0557 12.8577 21.4909 12.8577C17.4513 12.8577 14.9907 14.3798 14.7344 16.3691C14.379 19.1491 16.2602 21.5508 22.0172 22.8337C34.7752 25.6752 36.922 33.0125 35.567 38.9393C34.3205 44.3968 28.0026 50 16.805 50Z" fill="white"/>
<path d="M27.0906 10L28.9752 1.31098C29.1234 0.635889 28.5888 0 27.8768 0H20.992C20.4619 0 20.0014 0.361499 19.8936 0.864548L18 9.59931L27.0906 10Z" fill="white"/>
<path d="M12.0494 44L10.0236 53.6734C9.88127 54.3576 10.4003 55 11.0967 55H17.8091C18.326 55 18.7749 54.6348 18.8801 54.1266L21 44H12.0494Z" fill="white"/>
</svg>
