<svg width="50" height="50" viewBox="0 0 50 50" fill="none" xmlns="http://www.w3.org/2000/svg">
<g clip-path="url(#clip0_9231_1375)">
<path d="M42.3272 9.10369C39.1403 7.64148 35.723 6.56414 32.1498 5.94705C32.0848 5.93513 32.0197 5.96492 31.9862 6.02439C31.5467 6.80613 31.0599 7.82586 30.719 8.62742C26.8759 8.05203 23.0525 8.05203 19.2882 8.62742C18.9472 7.80808 18.4427 6.80613 18.0012 6.02439C17.9677 5.96687 17.9026 5.93709 17.8376 5.94705C14.2665 6.56209 10.8491 7.63943 7.66027 9.10369C7.63263 9.1156 7.609 9.13543 7.59327 9.16121C1.11124 18.8453 -0.664538 28.2914 0.206556 37.6203C0.210462 37.6659 0.236145 37.7095 0.271595 37.7373C4.54825 40.878 8.69103 42.7846 12.7568 44.0485C12.8218 44.0683 12.8907 44.0446 12.9321 43.991C13.8939 42.6776 14.7512 41.2927 15.4862 39.8364C15.5296 39.7511 15.4882 39.65 15.3995 39.6162C14.0397 39.1004 12.7448 38.4714 11.4992 37.7572C11.4007 37.6997 11.3928 37.5588 11.4835 37.4913C11.7456 37.2949 12.0078 37.0905 12.2581 36.8842C12.3034 36.8465 12.3665 36.8386 12.4197 36.8623C20.6026 40.5983 29.4614 40.5983 37.5477 36.8623C37.6009 36.8365 37.664 36.8445 37.7112 36.8821C37.9616 37.0885 38.2237 37.2948 38.4878 37.4912C38.5784 37.5587 38.5725 37.6996 38.474 37.7571C37.2284 38.4852 35.9336 39.1003 34.5718 39.6141C34.4831 39.6478 34.4437 39.7511 34.4871 39.8363C35.238 41.2906 36.0953 42.6755 37.0393 43.9889C37.0787 44.0445 37.1496 44.0683 37.2147 44.0484C41.3001 42.7846 45.4429 40.8779 49.7195 37.7372C49.757 37.7094 49.7807 37.6678 49.7846 37.6221C50.8272 26.8369 48.0384 17.4682 42.392 9.16306C42.3783 9.13543 42.3547 9.1156 42.3272 9.10369ZM16.7084 31.9399C14.2448 31.9399 12.2149 29.6782 12.2149 26.9005C12.2149 24.1227 14.2054 21.861 16.7084 21.861C19.231 21.861 21.2413 24.1427 21.2019 26.9005C21.2019 29.6782 19.2112 31.9399 16.7084 31.9399ZM33.3224 31.9399C30.8589 31.9399 28.8289 29.6782 28.8289 26.9005C28.8289 24.1227 30.8195 21.861 33.3224 21.861C35.845 21.861 37.8553 24.1427 37.8159 26.9005C37.8159 29.6782 35.8451 31.9399 33.3224 31.9399Z" fill="white"/>
</g>
<defs>
<clipPath id="clip0_9231_1375">
<rect width="50" height="50" fill="white"/>
</clipPath>
</defs>
</svg>
