<svg width="33" height="38" viewBox="0 0 33 38" fill="none" xmlns="http://www.w3.org/2000/svg">
<path d="M32.3845 26.3406H30.8462C30.5632 26.3406 30.3168 26.5371 30.2488 26.8168L29.2632 30.8728C28.7191 33.1117 26.7462 34.6843 24.4815 34.6843H14.1767C12.9567 34.6843 11.9678 33.6772 11.9678 32.4347V21.2286C11.9678 21.02 12.1339 20.8509 12.3387 20.8509H19.4105C21.0356 20.8509 22.353 22.1926 22.353 23.8476V24.8576C22.353 25.2038 22.6286 25.4844 22.9685 25.4844H24.3092C24.6491 25.4844 24.9247 25.2038 24.9247 24.8576V12.2609C24.9247 11.9148 24.6491 11.6342 24.3092 11.6342H22.7707C22.4307 11.6342 22.1552 11.9148 22.1552 12.2609V13.9929C22.1552 15.6479 20.8378 16.9896 19.2127 16.9896H12.3387C12.1338 16.9896 11.9678 16.8205 11.9678 16.6118V5.7247C11.9678 4.38031 13.0379 3.29047 14.358 3.29047H24.4136C26.4438 3.29047 28.0897 4.96661 28.0897 7.03421V10.0505C28.0897 10.3967 28.3652 10.6772 28.705 10.6772H30.1456C30.4652 10.6772 30.7316 10.4281 30.7587 10.1038L31.464 1.69699C31.5406 0.784103 30.8336 0 29.9339 0H0.615381C0.275488 0 0 0.280562 0 0.626715V2.89875C0 3.24492 0.275488 3.52546 0.615381 3.52546H3.0661C4.5137 3.52546 5.68713 4.72059 5.68713 6.19477V32.0318C5.68713 33.506 4.51371 34.7011 3.0661 34.7011H0.615381C0.275475 34.7011 0 34.9817 0 35.3279V37.3732C0 37.7194 0.275488 38 0.615381 38H30.2992C31.0467 38 31.678 37.4347 31.7738 36.6797L32.9948 27.0476C33.0423 26.6727 32.7556 26.3406 32.3845 26.3406Z" fill="white"/>
</svg>
