<svg width="58" height="58" viewBox="0 0 58 58" fill="none" xmlns="http://www.w3.org/2000/svg">
<path d="M28.8113 0.0277943C17.0105 0.0277943 5.80451 -1.02196 1.52426 9.96305C-0.243744 14.5 0.0130062 20.3923 0.0130062 28.8293C0.0130062 36.2328 -0.224244 43.191 1.52426 47.6923C5.79476 58.6838 17.0918 57.6308 28.8048 57.6308C40.105 57.6308 51.7563 58.8073 56.0885 47.6923C57.8598 43.1098 57.5998 37.3053 57.5998 28.8293C57.5998 17.5778 58.2205 10.314 52.7638 4.86054C47.2388 -0.664456 39.767 0.0277943 28.7983 0.0277943H28.8113ZM26.2308 5.21804C50.8463 5.17904 53.9793 2.44255 52.2503 40.4578C51.636 53.903 41.3985 52.4275 28.8145 52.4275C5.8695 52.4275 5.20976 51.771 5.20976 28.8163C5.20976 5.59505 7.02976 5.23104 26.2308 5.21154V5.21804ZM44.1838 9.99879C42.276 9.99879 40.729 11.5458 40.729 13.4535C40.729 15.3613 42.276 16.9083 44.1838 16.9083C46.0915 16.9083 47.6385 15.3613 47.6385 13.4535C47.6385 11.5458 46.0915 9.99879 44.1838 9.99879ZM28.8113 14.0385C20.644 14.0385 14.0238 20.662 14.0238 28.8293C14.0238 36.9965 20.644 43.6168 28.8113 43.6168C36.9785 43.6168 43.5955 36.9965 43.5955 28.8293C43.5955 20.662 36.9785 14.0385 28.8113 14.0385ZM28.8113 19.2288C41.5025 19.2288 41.5188 38.4298 28.8113 38.4298C16.1233 38.4298 16.1038 19.2288 28.8113 19.2288Z" fill="white"/>
</svg>
