<svg width="51" height="51" viewBox="0 0 51 51" fill="none" xmlns="http://www.w3.org/2000/svg">
<path d="M6.12976 0.0438232C2.74236 0.0438232 0.000548034 2.79057 0 6.17029C0 9.5533 2.74181 12.2995 6.1303 12.2995C9.50948 12.2995 12.2551 9.5533 12.2551 6.17029C12.2551 2.79002 9.50893 0.0438232 6.12976 0.0438232Z" fill="white"/>
<path d="M0.842896 16.9485H11.4128V50.9562H0.842896V16.9485Z" fill="white"/>
<path d="M38.3212 16.1028C33.1796 16.1028 29.7319 18.9219 28.3207 21.5952H28.1793V16.9485H18.0418H18.0413V50.9556H28.6019V34.1321C28.6019 29.6968 29.4464 25.4008 34.9454 25.4008C40.3654 25.4008 40.4377 30.4734 40.4377 34.4165V50.955H51V32.3022C51 23.1462 49.0243 16.1028 38.3212 16.1028Z" fill="white"/>
</svg>
