<svg width="34" height="49" viewBox="0 0 34 49" fill="none" xmlns="http://www.w3.org/2000/svg">
<path d="M19.8403 39.041C27.4528 39.4788 33.1912 41.4353 33.1912 43.7819C33.1912 46.4491 25.7634 48.6138 16.5956 48.6138C7.43062 48.6138 0 46.4491 0 43.7819C0 41.4625 5.60625 39.5266 13.0847 39.056L19.8403 39.041Z" fill="white"/>
<path d="M16.4485 0C23.6307 0 29.4535 5.82281 29.4535 13.0069C29.4535 17.0616 23.9738 25.5309 19.8403 32.0409C18.4847 34.1766 17.2735 36.1013 16.4485 37.59C15.6507 36.1519 14.445 34.2216 13.0847 32.0559C8.97284 25.5131 3.44159 16.815 3.44159 13.0069C3.44159 5.82281 9.2644 0 16.4485 0ZM22.2591 12.5166C22.2591 9.31406 19.6491 6.70313 16.4485 6.70313C13.246 6.70313 10.636 9.31406 10.636 12.5166C10.636 15.7172 13.246 18.3272 16.4485 18.3272C19.6491 18.3272 22.2591 15.7172 22.2591 12.5166Z" fill="white"/>
</svg>
