<svg width="46" height="30" viewBox="0 0 46 30" fill="none" xmlns="http://www.w3.org/2000/svg">
<path d="M15.0021 0C16.9712 0 18.9234 0.387535 20.7432 1.14295C22.563 1.89555 24.2166 3.00199 25.6082 4.39487C26.9999 5.78775 28.107 7.44179 28.8591 9.26152C29.6134 11.0817 30.0011 13.0321 30 15.0015C30 21.0673 26.3463 26.5377 20.7404 28.8573C15.1345 31.1797 8.6835 29.8964 4.39316 25.6054C0.102817 21.3172 -1.17893 14.8639 1.1423 9.26152C3.46354 3.65631 8.93422 0.00280816 14.9993 0.00280816L15.0021 0ZM15.0021 19.4975C15.5939 19.4987 16.18 19.3832 16.7268 19.1577C17.2737 18.9321 17.7703 18.6009 18.1882 18.1833C18.6056 17.7646 18.9367 17.2685 19.1629 16.723C19.3882 16.1754 19.5037 15.5913 19.5037 15.0015C19.5037 13.1818 18.4079 11.5418 16.7261 10.8454C15.0444 10.1489 13.1091 10.5337 11.8217 11.8198C10.5343 13.106 10.1484 15.0409 10.847 16.723C11.1862 17.5444 11.7625 18.2468 12.5028 18.7413C13.243 19.2357 14.1139 19.4999 15.0049 19.5003L15.0021 19.4975Z" fill="white"/>
<path d="M32.8579 11.2535C36.6695 12.3516 41.1686 11.2535 41.1686 11.2535C39.8642 16.9547 35.723 20.5242 29.7534 20.9567C29.1787 22.2936 28.4096 23.5377 27.4743 24.6527C26.539 25.7676 25.446 26.7393 24.2318 27.5398C23.0147 28.3402 21.6907 28.958 20.2962 29.3737C18.9017 29.7893 17.4537 30.0028 16 30L20.499 15.6965C25.1248 0.994195 27.4969 0 38.4669 0H46C44.7407 5.54952 40.3967 9.79029 32.8579 11.2507V11.2535Z" fill="white"/>
</svg>
