<svg width="52" height="52" viewBox="0 0 52 52" fill="none" xmlns="http://www.w3.org/2000/svg">
<path d="M26.2262 0.000926749C11.6879 -0.120407 -0.120406 11.6879 0.000926748 26.2263C0.12226 40.3442 11.6576 51.8796 25.7712 51.9965C40.3096 52.1223 52.1222 40.3096 51.9966 25.7712C51.8795 11.6576 40.3443 0.12226 26.2262 0.000926749ZM18.4523 12.9403C20.1163 15.0549 21.113 17.7287 21.113 20.6319C21.113 23.1453 20.3675 25.4853 19.085 27.4396H10.0716L18.4523 12.9403ZM45.9342 30.6506C45.9342 30.7719 45.8693 30.8759 45.7566 30.9236C45.1456 31.1836 43.1306 32.1196 42.2899 33.2853C40.1275 36.297 38.4766 41.029 34.7846 41.029H19.3795C13.9239 41.029 9.36093 36.6999 9.36526 30.9322C9.36526 30.7893 9.48659 30.6722 9.62958 30.6722H16.9313C17.1826 30.6722 17.3819 30.8759 17.3819 31.1229V32.5312C17.3819 33.281 17.9886 33.8876 18.7382 33.8876H24.2763V30.6636H20.4933C22.6686 27.9076 23.9643 24.4279 23.9643 20.6405C23.9643 16.4156 22.3435 12.5633 19.6915 9.68159C21.2949 9.86792 22.829 10.1886 24.2763 10.6133V9.71626C24.2763 8.78459 25.0302 8.03059 25.9619 8.03059C26.8936 8.03059 27.6475 8.78459 27.6475 9.71626V11.8786C32.8173 14.2923 36.2016 18.2962 36.2016 22.8245C36.2016 25.481 35.0403 27.9552 33.0339 30.0352C32.6483 30.434 32.1152 30.6592 31.5563 30.6592H27.6475V33.8789H32.553C33.6102 33.8789 35.5083 31.8725 36.4096 30.6636C36.4096 30.6636 36.4486 30.6029 36.5526 30.5725C36.6566 30.5423 45.5616 28.497 45.5616 28.497C45.7478 28.445 45.9342 28.5879 45.9342 28.7786V30.6506Z" fill="white"/>
</svg>
