<svg width="48" height="48" viewBox="0 0 48 48" fill="none" xmlns="http://www.w3.org/2000/svg">
<g clip-path="url(#clip0_9231_1269)">
<path d="M38.4106 3.621C36.1727 1.086 32.1227 0 26.9416 0H11.9056C10.8466 0 9.94658 0.765 9.77858 1.8L3.51768 41.193C3.39468 41.97 4.00068 42.672 4.79268 42.672H14.0747L16.4057 28.002L16.3337 28.464C16.4987 27.429 17.3957 26.664 18.4547 26.664H22.8647C31.5317 26.664 38.3147 23.172 40.2977 13.071C40.3577 12.771 40.4507 12.195 40.4507 12.195C41.0146 8.457 40.4476 5.922 38.4106 3.621Z" fill="white"/>
<path d="M42.7996 14.109C40.6456 24.054 33.7726 29.316 22.8646 29.316H18.9106L15.9586 48H22.3726C23.2996 48 24.0886 47.331 24.2326 46.422L24.3076 46.026L25.7836 36.753L25.8796 36.243C26.0236 35.334 26.8126 34.665 27.7366 34.665H28.9096C36.4906 34.665 42.4246 31.611 44.1586 22.776C44.8546 19.23 44.5186 16.257 42.7996 14.109Z" fill="white"/>
</g>
<defs>
<clipPath id="clip0_9231_1269">
<rect width="48" height="48" fill="white"/>
</clipPath>
</defs>
</svg>
