<svg width="34" height="44" viewBox="0 0 34 44" fill="none" xmlns="http://www.w3.org/2000/svg">
<path d="M33.2314 9.43525L24.0648 0.268555C23.8929 0.0966797 23.6602 0 23.4166 0H4.16661C2.14441 0 0.5 1.64441 0.5 3.6667V40.3334C0.5 42.3556 2.14441 44 4.1667 44H29.8334C31.8556 44 33.5 42.3556 33.5 40.3333V10.0833C33.5 9.83984 33.4033 9.60713 33.2314 9.43525ZM24.3333 3.12959L30.3704 9.1667H26.1666C25.156 9.1667 24.3333 8.34402 24.3333 7.33339V3.12959ZM31.6667 40.3333C31.6667 41.3439 30.844 42.1666 29.8334 42.1666H4.1667C3.15607 42.1666 2.33339 41.3439 2.33339 40.3333V3.6667C2.33339 2.65607 3.15607 1.83339 4.1667 1.83339H22.5V7.33339C22.5 9.35559 24.1444 11 26.1667 11H31.6667V40.3333Z" fill="white"/>
<path d="M21.6737 26.9101C20.8251 26.2422 20.0186 25.5557 19.4814 25.0186C18.7832 24.3203 18.161 23.6436 17.6204 22.999C18.4637 20.3932 18.8334 19.0495 18.8334 18.3333C18.8334 15.2906 17.7341 14.6666 16.0834 14.6666C14.8292 14.6666 13.3334 15.3183 13.3334 18.4211C13.3334 19.7889 14.0827 21.4495 15.5678 23.3795C15.2043 24.4886 14.7773 25.7679 14.2975 27.21C14.0665 27.9019 13.8159 28.5429 13.5509 29.1355C13.3352 29.2313 13.1257 29.3289 12.9234 29.43C12.1947 29.7944 11.5028 30.122 10.8609 30.4264C7.93359 31.8121 6 32.7288 6 34.5388C6 35.853 7.42785 36.6666 8.75 36.6666C10.4544 36.6666 13.0281 34.3901 14.9079 30.5552C16.8594 29.7854 19.2854 29.2151 21.2002 28.8579C22.7345 30.0378 24.4291 31.1666 25.25 31.1666C27.5229 31.1666 28 29.8525 28 28.7505C28 26.5832 25.5239 26.5832 24.3333 26.5832C23.9636 26.5833 22.9718 26.6925 21.6737 26.9101ZM8.75 34.8333C8.2263 34.8333 7.8718 34.5863 7.8333 34.5388C7.8333 33.8889 9.77137 32.9705 11.6459 32.0825C11.7649 32.0261 11.8859 31.9696 12.0085 31.9114C10.6317 33.9078 9.27009 34.8333 8.75 34.8333ZM15.1667 18.4211C15.1667 16.5 15.7629 16.5 16.0834 16.5C16.7315 16.5 17.0001 16.5 17.0001 18.3333C17.0001 18.72 16.7423 19.6868 16.2705 21.1962C15.5507 20.0879 15.1667 19.1381 15.1667 18.4211ZM15.8694 28.2735C15.9267 28.1141 15.9822 27.953 16.036 27.7901C16.3761 26.7695 16.6823 25.8529 16.9553 25.0275C17.3358 25.4465 17.7458 25.8753 18.1853 26.3148C18.3572 26.4866 18.7833 26.8734 19.3509 27.3576C18.221 27.6038 17.0188 27.9091 15.8694 28.2735ZM26.1667 28.7506C26.1667 29.1624 26.1667 29.3333 25.3163 29.3387C25.0665 29.285 24.4891 28.9449 23.7765 28.4597C24.0352 28.4311 24.2259 28.4167 24.3333 28.4167C25.6878 28.4167 26.0718 28.5491 26.1667 28.7506Z" fill="white"/>
</svg>
