<svg width="48" height="48" viewBox="0 0 48 48" fill="none" xmlns="http://www.w3.org/2000/svg">
<path fill-rule="evenodd" clip-rule="evenodd" d="M3.8081 19.1775C1.05105 14.179 0 10.1493 0 7.42756C0 4.70578 0.668713 3.92514 1.34729 3.29454C2.02581 2.66388 5.08565 0.77743 5.60698 0.42556C6.12837 0.0737518 8.11817 -0.609947 9.36599 1.18505C10.6138 2.9801 12.9636 6.58415 14.5837 8.97836C17.1259 12.3696 15.1006 13.8583 14.4464 14.7505C13.2426 16.3924 12.5495 16.7974 12.5495 18.8135C12.5495 20.8296 18.184 26.5575 19.5312 27.9687C20.8682 29.3693 26.4825 34.291 28.2222 34.5542C29.9741 34.8192 32.3194 32.9645 32.818 32.4941C35.3547 30.5466 36.7866 32.0231 37.955 32.6649C39.1234 33.3067 44.4026 36.5963 46.0387 37.7052C47.5784 38.814 47.4822 40.5278 47.4822 40.5278C47.4822 40.5278 44.3064 45.568 43.9215 46.1729C43.4403 46.8785 42.2855 47.4833 39.6872 47.4833C37.0889 47.4833 34.3127 47.0087 27.715 43.3803C22.3165 40.4113 17.1703 35.7622 14.4758 33.0404C11.685 30.3187 6.95742 24.8871 3.8081 19.1775Z" fill="white"/>
</svg>
