<svg width="45" height="53" viewBox="0 0 45 53" fill="none" xmlns="http://www.w3.org/2000/svg">
<path d="M23.2204 0C8.69446 0 0.96936 9.30854 0.96936 19.4585C0.96936 24.1658 3.5996 30.0358 7.80998 31.8975C8.44932 32.1857 8.79715 32.0631 8.93959 31.4702C9.06547 31.0196 9.61869 28.8499 9.88701 27.8262C9.96983 27.4983 9.92676 27.2134 9.66175 26.9053C8.26381 25.2888 7.15408 22.3438 7.15408 19.5811C7.15408 12.5019 12.7823 5.62819 22.3591 5.62819C30.6408 5.62819 36.4346 11.0079 36.4346 18.7032C36.4346 27.3989 31.8333 33.4147 25.854 33.4147C22.5446 33.4147 20.08 30.8176 20.8618 27.6043C21.8059 23.7782 23.6577 19.6639 23.6577 16.9044C23.6577 14.4299 22.2598 12.3827 19.4043 12.3827C16.0353 12.3827 13.3024 15.7185 13.3024 20.1972C13.3024 23.0428 14.3094 24.9641 14.3094 24.9641C14.3094 24.9641 10.9769 38.4267 10.3574 40.941C9.31061 45.1978 10.4999 52.0914 10.6025 52.6844C10.6655 53.0123 11.0332 53.115 11.2386 52.8467C11.5665 52.416 15.5947 46.6686 16.7243 42.5145C17.1351 41.0007 18.8212 34.8623 18.8212 34.8623C19.931 36.8665 23.1343 38.546 26.5463 38.546C36.6963 38.546 44.0305 29.625 44.0305 18.5541C43.994 7.94042 34.9108 0 23.2204 0Z" fill="white"/>
</svg>
