<svg width="47" height="47" viewBox="0 0 47 47" fill="none" xmlns="http://www.w3.org/2000/svg">
<g clip-path="url(#clip0_9231_1126)">
<path d="M46.6218 19.1499C46.8307 19.1499 47.0001 19.3193 47.0001 19.5282V23.5C47.0001 24.9866 46.862 26.4401 46.5972 27.8501C44.5486 38.8023 34.8998 47.0791 23.3344 46.9994C10.3572 46.9099 -0.0285509 36.4244 0.000181543 23.447C0.0287304 10.4929 10.5393 0 23.5001 0C29.85 0 35.6113 2.51909 39.8412 6.61103C39.994 6.75873 39.9979 7.00217 39.8476 7.15235L34.2287 12.7713C34.084 12.916 33.8503 12.9198 33.702 12.7787C31.0472 10.2516 27.4552 8.70014 23.5001 8.70014C15.3328 8.70014 8.75604 15.2302 8.7006 23.3973C8.64488 31.618 15.2924 38.2998 23.5001 38.2998C30.1595 38.2998 35.792 33.9005 37.6493 27.8501H23.8784C23.6695 27.8501 23.5001 27.6807 23.5001 27.4718V19.5281C23.5001 19.3192 23.6695 19.1498 23.8784 19.1498H46.6218V19.1499Z" fill="white"/>
<path d="M46.6217 19.1499H43.7847C43.9937 19.1499 44.163 19.3193 44.163 19.5282V23.5C44.163 24.9865 44.025 26.44 43.7601 27.85C41.8057 38.2985 32.934 46.312 22.08 46.9576C22.4953 46.9821 22.9133 46.9964 23.3343 46.9993C34.8998 47.0791 44.5485 38.8021 46.5971 27.85C46.862 26.44 47 24.9865 47 23.5V19.5281C47 19.3193 46.8307 19.1499 46.6217 19.1499Z" fill="white"/>
<path d="M10.0573 17.3021L2.92023 12.1453C6.92422 4.90333 14.6399 0 23.5 0C29.8499 0 35.6112 2.51909 39.8411 6.61103C39.9939 6.75873 39.9978 7.00217 39.8475 7.15235L34.2286 12.7713C34.0842 12.9157 33.8505 12.9202 33.7026 12.7794C31.0477 10.2519 27.4554 8.70023 23.5 8.70023C17.5394 8.70023 12.4016 12.2238 10.0573 17.3021Z" fill="white"/>
<path d="M7.99689 15.8134L10.0573 17.302C12.1971 12.6668 16.6646 9.32854 21.9604 8.78098C22.0002 8.77666 22.0385 8.77143 22.0791 8.76757C21.613 8.72333 21.1407 8.7002 20.663 8.7002C15.2785 8.7002 10.5858 11.5388 7.99689 15.8134Z" fill="white"/>
<path d="M37.0042 6.61103C37.1569 6.75873 37.1609 7.00217 37.0106 7.15245L32.4498 11.7132C32.8868 12.0455 33.305 12.4009 33.702 12.7788C33.8501 12.9199 34.0839 12.9161 34.2286 12.7714L39.8476 7.15245C39.9978 7.00217 39.9938 6.75882 39.8411 6.61103C35.6112 2.51909 29.8499 0 23.5 0C23.0235 0 22.5507 0.0158809 22.0813 0.0438789C27.8682 0.388576 33.0915 2.82606 37.0042 6.61103Z" fill="white"/>
<path d="M40.7387 39.4705C36.4472 44.1015 30.3117 47 23.5 47C14.2996 47 6.33417 41.7127 2.47668 34.0102L9.76306 29.017C11.9496 34.4575 17.2765 38.2997 23.5 38.2997C27.4056 38.2997 30.9576 36.7867 33.6017 34.3147L40.7387 39.4705Z" fill="white"/>
<path d="M9.76316 29.0171L7.61456 30.4894C10.1101 35.1384 15.0174 38.2998 20.663 38.2998C21.1405 38.2998 21.6124 38.2764 22.0783 38.2322C16.4742 37.698 11.781 34.0383 9.76316 29.0171Z" fill="white"/>
<path d="M23.5 46.9999C30.3117 46.9999 36.4472 44.1015 40.7387 39.4705L38.9906 38.2076C34.9611 43.2225 28.9163 46.5493 22.085 46.9572C22.5532 46.9851 23.0248 46.9999 23.5 46.9999Z" fill="white"/>
<path d="M8.70023 23.5C8.70023 25.4499 9.07752 27.312 9.76315 29.0171L2.47668 34.0102C0.891807 30.8479 0 27.278 0 23.5C0 19.3816 1.05915 15.5109 2.92024 12.1453L10.0573 17.302C9.1863 19.1867 8.70023 21.2871 8.70023 23.5Z" fill="white"/>
<path d="M7.61453 30.4894L9.76313 29.0171C9.0775 27.312 8.70022 25.4499 8.70022 23.5C8.70022 21.2871 9.18628 19.1867 10.0572 17.302L7.99687 15.8134C6.65893 18.0224 5.88242 20.6147 5.86351 23.3973C5.84607 25.9634 6.48194 28.3796 7.61453 30.4894Z" fill="white"/>
</g>
<defs>
<clipPath id="clip0_9231_1126">
<rect width="47" height="47" fill="white"/>
</clipPath>
</defs>
</svg>
