<svg width="48" height="45" viewBox="0 0 48 45" fill="none" xmlns="http://www.w3.org/2000/svg">
<path d="M47.0591 33.6046C40.6418 32.5485 37.7496 25.9752 37.6326 25.6962C37.6236 25.6782 37.6176 25.6602 37.6056 25.6422C37.2786 24.9762 37.2006 24.4271 37.3806 24.0101C37.7317 23.1881 39.0757 22.7621 39.9638 22.4801C40.2218 22.399 40.4648 22.321 40.6658 22.243C41.5418 21.898 42.1659 21.523 42.5799 21.1C43.0719 20.593 43.1679 20.1069 43.1619 19.7919C43.1469 19.0239 42.5589 18.3399 41.6198 18.0068C41.3048 17.8778 40.9418 17.8088 40.5758 17.8088C40.3268 17.8088 39.9548 17.8418 39.6037 18.0068C38.8537 18.3579 38.1817 18.5499 37.6026 18.5769C37.2966 18.5619 37.0806 18.4959 36.9396 18.4329C36.9576 18.1328 36.9756 17.8238 36.9966 17.5058L37.0056 17.3678C37.2126 14.1187 37.4676 10.0775 36.3936 7.67736C35.6586 6.03328 34.6715 4.62022 33.4564 3.47416C32.4394 2.51412 31.2573 1.73408 29.9433 1.15805C27.6602 0.150007 25.5301 0 24.462 0H24.459C24.417 0 24.378 0 24.342 0C24.045 0.00300014 23.562 0.0090004 23.517 0.0090004C22.4519 0.0090004 20.3188 0.159008 18.0297 1.16705C16.7187 1.74308 15.5426 2.52012 14.5286 3.48016C13.3195 4.62622 12.3355 6.03628 11.6034 7.67436C10.5294 10.0715 10.7844 14.1127 10.9884 17.3588V17.3648C11.0094 17.7128 11.0334 18.0758 11.0544 18.4299C10.8984 18.4989 10.6434 18.5769 10.2684 18.5769C9.66233 18.5769 8.9423 18.3849 8.12926 18.0038C7.88925 17.8928 7.61624 17.8358 7.31622 17.8358C6.8332 17.8358 6.32018 17.9768 5.87916 18.2379C5.32113 18.5649 4.96111 19.0239 4.86211 19.5369C4.7991 19.8729 4.8021 20.542 5.54614 21.22C5.95716 21.592 6.55719 21.937 7.33422 22.243C7.53823 22.324 7.78125 22.399 8.03626 22.4801C8.9243 22.7621 10.2714 23.1881 10.6224 24.0101C10.7994 24.4271 10.7214 24.9762 10.3944 25.6422C10.3854 25.6602 10.3764 25.6782 10.3704 25.6962C10.2864 25.8882 9.52133 27.6133 7.95225 29.4344C7.06121 30.4694 6.08016 31.3365 5.03612 32.0085C3.76106 32.8305 2.38399 33.3646 0.940924 33.6016C0.373897 33.6946 -0.0311217 34.1986 0.00187984 34.7716C0.0108803 34.9366 0.0498821 35.1016 0.118885 35.2607V35.2637C0.349896 35.8007 0.880921 36.2537 1.74496 36.6527C2.80101 37.1417 4.37909 37.5528 6.44018 37.8738C6.54519 38.0718 6.65319 38.5668 6.7282 38.9058C6.8062 39.2658 6.8872 39.6379 7.00421 40.0309C7.13021 40.4569 7.45423 40.9669 8.29127 40.9669C8.60928 40.9669 8.9723 40.8949 9.39532 40.8139C10.0133 40.6939 10.8594 40.5289 11.9124 40.5289C12.4975 40.5289 13.1035 40.5799 13.7125 40.6819C14.8886 40.8769 15.9026 41.591 17.0757 42.419C18.7918 43.631 20.7359 45.0021 23.706 45.0021C23.787 45.0021 23.868 44.9991 23.949 44.9931C24.045 44.9991 24.168 45.0021 24.294 45.0021C27.2642 45.0021 29.2083 43.631 30.9243 42.422L30.9273 42.419C32.1004 41.5939 33.1144 40.8799 34.2905 40.6849C34.8995 40.5829 35.5055 40.5319 36.0906 40.5319C37.0986 40.5319 37.8967 40.6609 38.6077 40.7989C39.0727 40.8889 39.4327 40.9339 39.7117 40.9339H39.7387H39.7657C40.3778 40.9339 40.8278 40.5979 40.9988 40.0129C41.1128 39.6259 41.1938 39.2658 41.2748 38.8968C41.3438 38.5788 41.4578 38.0688 41.5598 37.8708C43.6209 37.5468 45.199 37.1387 46.2551 36.6497C47.1161 36.2507 47.6471 35.7977 47.8781 35.2637C47.9471 35.1046 47.9891 34.9396 47.9981 34.7686C48.0311 34.2016 47.6261 33.6946 47.0591 33.6046Z" fill="white"/>
</svg>
