<svg width="50" height="50" viewBox="0 0 50 50" fill="none" xmlns="http://www.w3.org/2000/svg">
<g clip-path="url(#clip0_9231_1301)">
<path d="M25 0C20.0555 0 15.222 1.46622 11.1108 4.21326C6.99953 6.96029 3.79521 10.8648 1.90302 15.4329C0.0108322 20.0011 -0.484251 25.0277 0.480379 29.8773C1.44501 34.7268 3.82603 39.1814 7.32234 42.6777C10.8187 46.174 15.2732 48.555 20.1228 49.5196C24.9723 50.4843 29.9989 49.9892 34.5671 48.097C39.1352 46.2048 43.0397 43.0005 45.7867 38.8893C48.5338 34.778 50 29.9445 50 25C50 18.3696 47.3661 12.0107 42.6777 7.32233C37.9893 2.63392 31.6304 0 25 0ZM34.0313 34.2415C33.8332 34.5799 33.509 34.8259 33.1298 34.9255C32.7505 35.0251 32.3473 34.9702 32.0085 34.7727C28.1193 32.5 23.6278 32.1364 20.5426 32.2159C18.5385 32.2672 16.5455 32.53 14.5966 33C14.2338 33.0642 13.86 32.9908 13.5485 32.7941C13.2369 32.5974 13.0099 32.2915 12.9119 31.9363C12.8138 31.5811 12.8518 31.2022 13.0184 30.8735C13.1849 30.5448 13.4681 30.2901 13.8125 30.1591C15.9596 29.6254 18.1578 29.3244 20.3693 29.2614C22.4858 29.1832 24.6044 29.3366 26.6875 29.7188C29.0857 30.1528 31.3918 30.9946 33.5057 32.2074C33.6746 32.3056 33.8223 32.4364 33.9403 32.5922C34.0583 32.7479 34.1442 32.9255 34.1931 33.1147C34.242 33.3039 34.2528 33.5009 34.2251 33.6943C34.1973 33.8877 34.1314 34.0737 34.0313 34.2415ZM36.7813 28.5284C36.6271 28.7932 36.406 29.0128 36.1403 29.1654C35.8746 29.318 35.5735 29.3981 35.2671 29.3977C34.9562 29.3982 34.6509 29.3148 34.3835 29.1562C29.7784 26.4659 24.4602 26.0312 20.804 26.1449C18.4304 26.2066 16.0698 26.518 13.7614 27.0739C13.3198 27.1778 12.8552 27.1065 12.4651 26.875C12.0751 26.6435 11.7899 26.2698 11.6696 25.8325C11.5494 25.3951 11.6033 24.9282 11.8201 24.5297C12.037 24.1313 12.3998 23.8325 12.8324 23.696C15.3759 23.0666 17.9801 22.7141 20.5994 22.6449C23.1071 22.5497 25.6175 22.7317 28.0852 23.1875C30.9234 23.702 33.6524 24.6994 36.1534 26.1364C36.553 26.3711 36.8434 26.7545 36.9611 27.2028C37.0788 27.6511 37.0141 28.1277 36.7813 28.5284ZM40.3296 22.2784C40.1404 22.6026 39.8696 22.8716 39.5441 23.0585C39.2186 23.2454 38.8498 23.3438 38.4744 23.3438C38.0938 23.348 37.719 23.2499 37.3892 23.0597C26.4404 16.6619 12.2386 20.4659 12.1051 20.5028C11.8291 20.5903 11.5383 20.6211 11.2501 20.5934C10.962 20.5657 10.6823 20.4801 10.428 20.3418C10.1737 20.2034 9.94996 20.0152 9.77016 19.7883C9.59037 19.5614 9.45824 19.3005 9.38169 19.0213C9.30514 18.7421 9.28576 18.4503 9.3247 18.1634C9.36363 17.8765 9.46009 17.6005 9.60829 17.3518C9.75649 17.1031 9.95338 16.8869 10.1872 16.7161C10.4209 16.5453 10.6868 16.4235 10.9688 16.358C14.0841 15.5833 17.274 15.1471 20.483 15.0568C23.5577 14.9422 26.6358 15.1651 29.6619 15.7216C33.1425 16.3461 36.4902 17.5626 39.5597 19.3182C39.8059 19.4596 40.0216 19.6485 40.1944 19.8738C40.3672 20.0992 40.4935 20.3565 40.5662 20.631C40.6388 20.9055 40.6563 21.1917 40.6177 21.473C40.579 21.7543 40.4849 22.0252 40.3409 22.2699L40.3296 22.2784Z" fill="white"/>
</g>
<defs>
<clipPath id="clip0_9231_1301">
<rect width="50" height="50" fill="white"/>
</clipPath>
</defs>
</svg>
