<svg width="44" height="51" viewBox="0 0 44 51" fill="none" xmlns="http://www.w3.org/2000/svg">
<path d="M22.3883 51H22.3739C14.8913 50.9484 9.13877 48.4397 5.27379 43.5414C1.8332 39.1829 0.0596141 33.1184 0 25.5184V25.4816C0.0596141 17.8798 1.8332 11.817 5.27379 7.45864C9.13696 2.56031 14.8913 0.0514371 22.3721 0H22.401C28.1371 0.0385778 32.9359 1.53904 36.6654 4.45574C40.171 7.19791 42.6382 11.1062 44 16.0744L39.7376 17.2829C37.4312 8.86922 31.5941 4.5678 22.3864 4.49983C16.307 4.54392 11.7106 6.48711 8.72147 10.2743C5.92206 13.8208 4.47532 18.9433 4.42293 25.4982C4.47712 32.055 5.92373 37.1773 8.72147 40.7223C11.7106 44.5093 16.307 46.4524 22.3864 46.4965C27.866 46.4561 31.4928 45.1577 34.509 42.153C37.9512 38.7239 37.8881 34.518 36.7864 31.9596C36.138 30.4517 34.9603 29.1954 33.3728 28.2439C32.9738 31.1129 32.076 33.4417 30.689 35.1958C28.8396 37.5374 26.2172 38.8177 22.8975 38.9994C20.3852 39.1371 17.965 38.5331 16.0867 37.2969C13.8652 35.8349 12.5648 33.5977 12.4257 30.9971C12.2902 28.4682 13.2764 26.1429 15.2016 24.4494C17.042 22.8314 19.6302 21.8819 22.688 21.7074C24.9419 21.5788 27.0496 21.6798 28.9984 22.0105C28.7401 20.4329 28.2165 19.1821 27.4362 18.2784C26.3633 17.035 24.7035 16.3995 22.5055 16.3848H22.4441C20.6795 16.3848 18.2828 16.877 16.7548 19.1875L13.083 16.6768C15.1275 13.5857 18.4489 11.885 22.4421 11.885H22.5325C29.2096 11.9272 33.1849 16.0799 33.5806 23.3328C33.8079 23.4302 34.0302 23.531 34.2505 23.6359C37.3661 25.1254 39.6435 27.3809 40.8392 30.1579C42.5045 34.0294 42.6579 40.3384 37.6027 45.3707C33.7412 49.2165 29.0526 50.9522 22.4007 50.9982H22.3863L22.3881 51H22.3883ZM24.4835 26.1556C23.9778 26.1556 23.4647 26.1703 22.941 26.2016C19.1031 26.422 16.7118 28.209 16.8473 30.7545C16.99 33.4214 19.8834 34.661 22.6629 34.5086C25.2221 34.3689 28.5527 33.3569 29.1107 26.6238C27.6982 26.3173 26.1452 26.1555 24.4835 26.1555V26.1556Z" fill="white"/>
</svg>
