<svg width="45" height="51" viewBox="0 0 45 51" fill="none" xmlns="http://www.w3.org/2000/svg">
<path d="M44.8444 12.7888C41.9338 12.7888 39.2483 11.8246 37.0918 10.198C34.6185 8.33329 32.8415 5.59802 32.2139 2.44538C32.0585 1.66644 31.9749 0.862588 31.9669 0.0388184H23.6525V22.7577L23.6425 35.2019C23.6425 38.5289 21.476 41.3498 18.4728 42.3419C17.6012 42.6298 16.6599 42.7663 15.6798 42.7125C14.4287 42.6437 13.2563 42.2662 12.2373 41.6566C10.0688 40.3597 8.59852 38.0069 8.55868 35.3155C8.49593 31.109 11.8966 27.6794 16.1001 27.6794C16.9299 27.6794 17.7267 27.8149 18.4728 28.0609V21.8513V19.619C17.6859 19.5025 16.885 19.4417 16.0752 19.4417C11.4742 19.4417 7.17112 21.3542 4.09518 24.7997C1.7703 27.4035 0.375771 30.7255 0.160614 34.2088C-0.12128 38.7849 1.55315 43.1348 4.80042 46.3442C5.27755 46.8154 5.77858 47.2527 6.30253 47.6561C9.08661 49.7987 12.4903 50.9601 16.0752 50.9601C16.885 50.9601 17.6859 50.9004 18.4728 50.7838C21.8217 50.2878 24.9116 48.7548 27.35 46.3442C30.3462 43.3828 32.0017 39.4513 32.0197 35.2667L31.9768 16.6835C33.4062 17.7862 34.9691 18.6986 36.6465 19.4069C39.2553 20.5075 42.0215 21.0654 44.8683 21.0644V15.027V12.7868C44.8703 12.7888 44.8464 12.7888 44.8444 12.7888Z" fill="white"/>
</svg>
