<svg width="54" height="55" viewBox="0 0 54 55" fill="none" xmlns="http://www.w3.org/2000/svg">
<path d="M26.8664 0C22.1533 0.000790647 17.5235 1.24284 13.4429 3.60119C9.36224 5.95954 5.97469 9.351 3.62104 13.4343C1.2674 17.5177 0.0306792 22.1489 0.0353167 26.862C0.0399543 31.5751 1.28578 36.2038 3.64746 40.2826L0 54.245L14.1927 50.4857C17.7888 52.4118 21.7767 53.4925 25.8533 53.6457C29.9298 53.799 33.9876 53.0207 37.7182 51.3701C41.4487 49.7195 44.7538 47.24 47.3821 44.1201C50.0105 41.0002 51.8928 37.3222 52.8861 33.3655C53.8793 29.4089 53.9574 25.2778 53.1142 21.2865C52.271 17.2952 50.5289 13.5486 48.0203 10.3317C45.5116 7.11485 42.3025 4.51232 38.6369 2.72202C34.9713 0.931717 30.9458 0.000783706 26.8664 0ZM42.6461 42.6137C39.0432 46.2146 34.3175 48.4755 29.253 49.0213C24.1885 49.5671 19.0896 48.3649 14.8022 45.6143L6.55732 47.8012L8.66475 39.7476C6.20281 36.2781 4.7838 32.1772 4.57493 27.9281C4.36605 23.679 5.37601 19.4587 7.4858 15.7645C9.5956 12.0702 12.7173 9.05597 16.4832 7.07684C20.249 5.09771 24.5021 4.23616 28.7413 4.59371C32.9805 4.95126 37.0292 6.513 40.4103 9.09493C43.7915 11.6769 46.3642 15.1714 47.8255 19.1668C49.2867 23.1622 49.5755 27.4921 48.6579 31.6462C47.7402 35.8003 45.6544 39.6056 42.6461 42.6137Z" fill="white"/>
<path d="M40.3117 33.8598C40.3131 34.301 40.2757 34.7415 40.1999 35.1761C40.1286 35.6168 40.0202 36.0506 39.8757 36.473C39.5433 37.4116 37.7277 38.561 37.7277 38.561C36.4375 39.4198 34.8958 39.8195 33.3508 39.6957C32.9885 39.6587 32.6286 39.6014 32.2727 39.5239C31.6697 39.3893 31.3763 39.3034 31.3763 39.3034C31.0845 39.2175 30.3274 38.9792 30.3274 38.9792C29.5704 38.7425 29.4002 38.6971 29.4002 38.6971C28.2502 38.3515 27.1359 37.8972 26.0721 37.3403C23.6193 36.0077 20.9478 33.6199 20.9478 33.6199C19.366 32.2137 17.936 30.6456 16.6811 28.9414C16.0135 27.9437 15.4384 26.8872 14.9627 25.7851C14.8979 25.623 14.5785 24.8951 14.5785 24.8951C14.2543 24.1689 14.1408 23.8884 14.1408 23.8884C14.0241 23.6064 13.8166 23.0228 13.8166 23.0228C13.6982 22.6784 13.6013 22.327 13.5264 21.9707C13.4668 21.6492 13.4267 21.3244 13.4064 20.998C13.3124 19.2926 14.1603 17.4981 14.1603 17.4981C15.0924 15.569 15.997 15.1281 15.997 15.1281C16.4015 14.9455 16.8187 14.7921 17.2452 14.6693C17.6674 14.5383 18.102 14.4514 18.5421 14.4099C18.6738 14.397 18.8068 14.4085 18.9344 14.4439C19.2748 14.5364 19.9962 15.7976 19.9962 15.7976C20.2199 16.138 20.6073 16.7702 20.6073 16.7702C20.9964 17.3992 21.3223 17.905 21.3223 17.905C21.6465 18.4156 21.9512 18.8631 21.9512 18.8631C22.0112 18.9344 22.3014 19.3089 22.3014 19.3089C22.4608 19.5103 22.606 19.7227 22.7358 19.9443C22.8249 20.1048 22.8801 20.282 22.898 20.4647C22.9174 20.8359 22.4214 21.4211 22.4214 21.4211C22.0844 21.8086 21.7191 22.1705 21.3287 22.504C20.9433 22.8309 20.5779 23.1806 20.2345 23.5513C19.7352 24.0992 19.7482 24.4331 19.7482 24.4331C19.7677 24.575 19.8064 24.7135 19.8633 24.8449C19.9703 25.0897 20.0432 25.2161 20.0432 25.2161C20.1145 25.3409 20.3269 25.6457 20.3269 25.6457C20.5393 25.9505 20.5587 25.9861 20.5587 25.9861C21.5374 27.5157 22.7021 28.9178 24.0262 30.1605C25.944 31.8756 28.5653 33.1416 28.5653 33.1416C28.6042 33.1579 28.93 33.3346 28.93 33.3346C29.2543 33.5129 29.3888 33.5696 29.3888 33.5696C29.5217 33.628 29.7779 33.7058 29.7779 33.7058C29.9136 33.752 30.056 33.7755 30.1994 33.7755C30.5333 33.7577 31.0229 33.2 31.0229 33.2C31.3521 32.8169 31.6585 32.4147 31.9404 31.9955C32.229 31.5714 32.5481 31.1688 32.8952 30.7911C33.4221 30.2318 33.7933 30.2107 33.7933 30.2107C33.9765 30.2092 34.1582 30.2433 34.3283 30.3112C34.5617 30.4182 34.7885 30.5389 35.0075 30.6727C35.4128 30.9191 35.4939 30.971 35.4939 30.971C35.9802 31.2239 36.5184 31.4898 36.5184 31.4898C37.0631 31.7572 37.731 32.0733 37.731 32.0733C38.3988 32.3895 38.762 32.5726 38.762 32.5726C40.0961 33.1497 40.221 33.4772 40.221 33.4772C40.2698 33.5996 40.3004 33.7285 40.3117 33.8598Z" fill="white"/>
</svg>
