<svg width="38" height="48" viewBox="0 0 38 48" fill="none" xmlns="http://www.w3.org/2000/svg">
<path d="M14.1722 30.8826C15.2709 30.5969 16.0239 29.6046 16.0927 28.3506C16.1623 27.0734 15.4654 25.9371 14.3794 25.5314L12.2092 24.6472C4.32857 21.3967 4.29575 21.3967 3.77876 21.3902C2.92735 21.3462 2.13831 21.7919 1.63417 22.5833C1.63342 22.5849 1.63257 22.5865 1.63173 22.5881C0.663481 24.1325 0.469831 28.3001 0.706618 30.5968C0.817088 31.6011 0.99714 32.3278 1.25315 32.8111C1.68284 33.633 2.4519 34.1403 3.29449 34.1683C3.34973 34.1715 3.39933 34.1747 3.45138 34.1747C3.90751 34.1747 4.58768 33.9595 11.1087 31.8628C13.3134 31.1594 13.9616 30.9522 14.1722 30.8826Z" fill="white"/>
<path d="M17.9709 32.4611C16.7857 32.0033 15.4918 32.309 14.7635 33.2109C14.7627 33.2109 13.4015 34.8305 13.2631 34.9899C13.2567 34.9971 13.2502 35.0043 13.2439 35.0123C7.72948 41.4837 7.71504 41.5261 7.54221 42.0247C7.41654 42.3624 7.37256 42.7225 7.41176 43.0459C7.45818 43.5324 7.66065 43.9957 8.01756 44.4279C9.29715 45.9563 14.6419 48.0001 17.1138 48.0001C17.3074 48.0001 17.4834 47.9873 17.6387 47.9609C18.5598 47.7904 19.2583 47.2319 19.5545 46.4285C19.5553 46.4237 19.5569 46.4197 19.5585 46.4157C19.7282 45.9315 19.7377 45.9019 19.7578 38.2861C19.7578 38.2861 19.7746 35.2468 19.7786 35.0828C19.8483 33.9408 19.1384 32.9108 17.9709 32.4611Z" fill="white"/>
<path d="M36.4849 33.735C36.072 33.4261 36.056 33.4149 28.8147 31.0382C28.8147 31.0382 26.0467 30.1235 25.7826 30.0291C25.7802 30.0283 25.7786 30.0275 25.7762 30.0267C24.7111 29.6129 23.514 29.9755 22.729 30.9437C21.9215 31.9289 21.8183 33.2604 22.4592 34.2375L23.6812 36.2276C28.1345 43.4609 28.1865 43.5025 28.593 43.8194C29.0075 44.1435 29.4997 44.3084 30.0167 44.3084C30.348 44.3084 30.6888 44.2411 31.0274 44.1035C33.0311 43.304 37.0499 38.1937 37.3548 36.0564C37.4876 35.129 37.1779 34.2879 36.4849 33.735Z" fill="white"/>
<path d="M24.6451 27.5762C24.6987 27.5882 24.754 27.593 24.8091 27.593C24.9043 27.593 25.0003 27.5762 25.0932 27.5409C25.4437 27.408 26.1759 27.2296 27.3402 26.9536C27.3411 26.9536 27.3418 26.9536 27.3434 26.9527C35.5803 24.9577 35.6362 24.9217 36.0867 24.6297C36.787 24.1575 37.1598 23.3605 37.1143 22.4426C37.115 22.3955 37.1127 22.3362 37.1095 22.3018C36.8766 20.0859 33.3076 14.8204 31.403 13.8889C30.5564 13.4848 29.6578 13.5288 28.9496 14.0049C28.5142 14.2874 28.5142 14.2874 24.0001 20.4612C24.0001 20.4612 22.1828 22.9331 22.0963 23.0483C21.3721 23.9318 21.3441 25.1786 22.0251 26.2252C22.6381 27.1624 23.6504 27.6754 24.6451 27.5762Z" fill="white"/>
<path d="M18.8403 1.81865C18.6034 0.955248 17.9305 0.324597 16.9918 0.0877158C14.7159 -0.472415 6.7272 1.76905 5.11151 3.43265C4.47055 4.10241 4.21604 4.97951 4.42976 5.77652C4.4426 5.82453 4.46014 5.87011 4.48096 5.91493C4.70583 6.38232 12.0264 17.9056 14.259 21.4154C15.1953 22.9359 16.2228 23.6993 17.3135 23.6993C17.5728 23.6993 17.8344 23.6561 18.0994 23.5704C19.5006 23.1479 20.1576 21.8259 20.0511 19.6413C19.9318 16.8894 18.9916 2.66368 18.8403 1.81865Z" fill="white"/>
</svg>
