<svg width="48" height="34" viewBox="0 0 48 34" fill="none" xmlns="http://www.w3.org/2000/svg">
<path d="M46.1291 3.00956C44.3964 0.949896 41.1975 0.109741 35.0882 0.109741H12.9114C6.66225 0.109741 3.40908 1.00409 1.68294 3.19692C0 5.33493 0 8.48512 0 12.8451V21.1551C0 29.6017 1.9968 33.8903 12.9114 33.8903H35.0883C40.3863 33.8903 43.322 33.1489 45.2213 31.3313C47.169 29.4673 48 26.424 48 21.1551V12.8451C48 8.24714 47.8698 5.07836 46.1291 3.00956ZM30.8162 18.1474L20.7458 23.4105C20.5206 23.5282 20.2744 23.5865 20.0285 23.5865C19.7501 23.5865 19.4724 23.5116 19.2263 23.3626C18.763 23.0819 18.4802 22.5798 18.4802 22.0382V11.5457C18.4802 11.005 18.7623 10.5033 19.2246 10.2224C19.6871 9.94153 20.2624 9.92233 20.7422 10.1716L30.8126 15.4008C31.325 15.6669 31.6467 16.1958 31.6475 16.7729C31.6481 17.3504 31.3277 17.8801 30.8162 18.1474Z" fill="white"/>
</svg>
